<svg width="404.0000366210937px" height="122px" xmlns="http://www.w3.org/2000/svg" viewBox="47.999981689453136 14 404.0000366210937 122" style="background: none;" preserveAspectRatio="xMidYMid"><defs><filter id="editing-hole" x="-100%" y="-100%" width="300%" height="300%"><feFlood flood-color="#bbcedd" result="black"></feFlood><feMorphology operator="dilate" radius="2" in="SourceGraphic" result="erode"></feMorphology><feGaussianBlur in="erode" stdDeviation="4" result="blur"></feGaussianBlur><feOffset in="blur" dx="2" dy="2" result="offset"></feOffset><feComposite operator="atop" in="offset" in2="black" result="merge"></feComposite><feComposite operator="in" in="merge" in2="SourceGraphic" result="inner-shadow"></feComposite></filter></defs><g filter="url(#editing-hole)"><g transform="translate(111.24909782409668, 96.76000022888184)"><path d="M29.18 1.28L29.18 1.28L29.18 1.28Q20.99 1.28 20.22-10.37L20.22-10.37L9.22-10.37L9.22-10.37Q7.94-7.42 7.04-4.86L7.04-4.86L5.38 0L-3.58 0L16.58-42.24L30.34-42.24L33.02-11.14L33.02-11.14Q33.66-4.42 36.22-2.43L36.22-2.43L36.22-2.43Q34.37 1.28 29.18 1.28ZM14.72-23.17L11.20-15.04L20.03-15.04L19.26-31.49L19.26-33.22L14.72-23.17ZM71.36-26.62L71.36-26.62L71.36-26.62Q71.36-23.94 69.12-22.27L69.12-22.27L69.12-22.27Q66.88-20.61 63.23-20.61L63.23-20.61L63.23-20.61Q61.70-20.61 60.80-21.06L60.80-21.06L60.80-21.06Q61.50-22.72 61.73-24.80L61.73-24.80L61.73-24.80Q61.95-26.88 61.95-27.46L61.95-27.46L61.95-27.46Q61.95-30.14 60.10-30.14L60.10-30.14L60.10-30.14Q58.82-30.14 57.38-28.54L57.38-28.54L57.38-28.54Q55.94-26.94 54.72-24.45L54.72-24.45L54.72-24.45Q52.03-18.69 52.03-12.86L52.03-12.86L52.03-12.86Q52.03-9.66 53.25-8.22L53.25-8.22L53.25-8.22Q54.46-6.78 57.15-6.78L57.15-6.78L57.15-6.78Q60.86-6.78 63.81-9.86L63.81-9.86L63.81-9.86Q64.64-10.82 65.09-11.90L65.09-11.90L65.09-11.90Q67.52-10.62 67.52-7.10L67.52-7.10L67.52-7.10Q67.52-3.52 63.55-1.15L63.55-1.15L63.55-1.15Q59.46 1.28 52.93 1.28L52.93 1.28L52.93 1.28Q39.94 1.28 39.94-12.48L39.94-12.48L39.94-12.48Q39.94-22.53 45.63-28.29L45.63-28.29L45.63-28.29Q51.14-33.92 61.25-33.92L61.25-33.92L61.25-33.92Q71.36-33.92 71.36-26.62ZM104.51-26.62L104.51-26.62L104.51-26.62Q104.51-23.94 102.27-22.27L102.27-22.27L102.27-22.27Q100.03-20.61 96.38-20.61L96.38-20.61L96.38-20.61Q94.85-20.61 93.95-21.06L93.95-21.06L93.95-21.06Q94.66-22.72 94.88-24.80L94.88-24.80L94.88-24.80Q95.10-26.88 95.10-27.46L95.10-27.46L95.10-27.46Q95.10-30.14 93.25-30.14L93.25-30.14L93.25-30.14Q91.97-30.14 90.53-28.54L90.53-28.54L90.53-28.54Q89.09-26.94 87.87-24.45L87.87-24.45L87.87-24.45Q85.18-18.69 85.18-12.86L85.18-12.86L85.18-12.86Q85.18-9.66 86.40-8.22L86.40-8.22L86.40-8.22Q87.62-6.78 90.30-6.78L90.30-6.78L90.30-6.78Q94.02-6.78 96.96-9.86L96.96-9.86L96.96-9.86Q97.79-10.82 98.24-11.90L98.24-11.90L98.24-11.90Q100.67-10.62 100.67-7.10L100.67-7.10L100.67-7.10Q100.67-3.52 96.70-1.15L96.70-1.15L96.70-1.15Q92.61 1.28 86.08 1.28L86.08 1.28L86.08 1.28Q73.09 1.28 73.09-12.48L73.09-12.48L73.09-12.48Q73.09-22.53 78.78-28.29L78.78-28.29L78.78-28.29Q84.29-33.92 94.40-33.92L94.40-33.92L94.40-33.92Q104.51-33.92 104.51-26.62ZM120.19 1.28L120.19 1.28L120.19 1.28Q106.11 1.28 106.11-11.97L106.11-11.97L106.11-11.97Q106.11-21.38 111.30-27.46L111.30-27.46L111.30-27.46Q116.80-33.92 126.34-33.92L126.34-33.92L126.34-33.92Q133.25-33.92 136.77-30.72L136.77-30.72L136.77-30.72Q140.29-27.52 140.29-20.80L140.29-20.80L140.29-20.80Q140.29-10.56 134.78-4.61L134.78-4.61L134.78-4.61Q129.41 1.28 120.19 1.28ZM121.86-26.56L121.86-26.56L121.86-26.56Q121.09-24.83 120.48-22.24L120.48-22.24L120.48-22.24Q119.87-19.65 119.10-15.55L119.10-15.55L119.10-15.55Q118.34-11.46 118.34-6.40L118.34-6.40L118.34-6.40Q118.34-4.74 118.88-3.65L118.88-3.65L118.88-3.65Q119.42-2.56 120.90-2.56L120.90-2.56L120.90-2.56Q122.37-2.56 123.30-3.26L123.30-3.26L123.30-3.26Q124.22-3.97 124.93-5.63L124.93-5.63L124.93-5.63Q126.21-8.58 127.23-14.05L127.23-14.05L127.23-14.05Q128.26-19.52 128.35-21.89L128.35-21.89L128.35-21.89Q128.45-24.26 128.45-26.02L128.45-26.02L128.45-26.02Q128.45-27.78 127.94-28.93L127.94-28.93L127.94-28.93Q127.42-30.08 125.98-30.08L125.98-30.08L125.98-30.08Q124.54-30.08 123.58-29.18L123.58-29.18L123.58-29.18Q122.62-28.29 121.86-26.56ZM164.61-2.69L164.61-2.69L164.61-2.69Q161.54 1.28 153.92 1.28L153.92 1.28L153.92 1.28Q149.95 1.28 147.07-1.12L147.07-1.12L147.07-1.12Q144.19-3.52 144.19-6.98L144.19-6.98L144.19-6.98Q144.19-8.90 144.38-9.86L144.38-9.86L148.67-32.64L161.66-33.92L156.99-9.22L156.99-9.22Q156.74-7.81 156.74-6.98L156.74-6.98L156.74-6.98Q156.74-3.26 158.98-3.26L158.98-3.26L158.98-3.26Q161.47-3.26 163.26-6.66L163.26-6.66L163.26-6.66Q163.84-7.74 164.10-9.15L164.10-9.15L168.64-32.64L181.25-33.92L176.51-8.96L176.51-8.96Q176.32-8 176.32-6.98L176.32-6.98L176.32-6.98Q176.32-5.95 176.90-4.83L176.90-4.83L176.90-4.83Q177.47-3.71 179.33-3.46L179.33-3.46L179.33-3.46Q178.94-1.92 177.60-0.90L177.60-0.90L177.60-0.90Q174.78 1.28 171.74 1.28L171.74 1.28L171.74 1.28Q168.70 1.28 166.91 0.19L166.91 0.19L166.91 0.19Q165.12-0.90 164.61-2.69ZM211.78 1.28L211.78 1.28L211.78 1.28Q204.03 1.28 204.03-4.74L204.03-4.74L204.03-4.74Q204.10-6.40 204.61-9.22L204.61-9.22L205.76-15.10L205.76-15.10Q207.49-23.42 207.49-25.28L207.49-25.28L207.49-25.28Q207.49-28.99 205.31-28.99L205.31-28.99L205.31-28.99Q201.66-28.99 199.74-19.46L199.74-19.46L195.97 0L183.10 1.28L189.76-32.70L200.26-33.92L199.23-27.65L199.23-27.65Q202.24-33.92 211.46-33.92L211.46-33.92L211.46-33.92Q215.94-33.92 217.82-32.03L217.82-32.03L217.82-32.03Q219.71-30.14 219.71-25.92L219.71-25.92L219.71-25.92Q219.71-21.95 217.66-12.67L217.66-12.67L217.66-12.67Q216.70-8.51 216.70-6.94L216.70-6.94L216.70-6.94Q216.70-5.38 217.57-4.48L217.57-4.48L217.57-4.48Q218.43-3.58 219.71-3.46L219.71-3.46L219.71-3.46Q219.07-1.28 216.86 0L216.86 0L216.86 0Q214.66 1.28 211.78 1.28ZM225.86-6.40L225.86-6.40L225.86-6.40Q225.86-8.13 226.75-12.48L226.75-12.48L230.14-29.76L226.37-29.76L226.62-31.68L226.62-31.68Q234.30-33.98 241.73-39.62L241.73-39.62L244.80-39.62L243.26-32.64L248.26-32.64L247.68-29.76L242.75-29.76L239.49-12.48L239.49-12.48Q238.66-8.51 238.66-7.17L238.66-7.17L238.66-7.17Q238.66-4.10 241.34-3.46L241.34-3.46L241.34-3.46Q240.70-1.28 238.40 0L238.40 0L238.40 0Q236.10 1.28 232.83 1.28L232.83 1.28L232.83 1.28Q229.57 1.28 227.71-0.77L227.71-0.77L227.71-0.77Q225.86-2.82 225.86-6.40ZM267.07-22.46L267.07-22.46L267.07-22.46Q267.97-24.83 267.97-26.88L267.97-26.88L267.97-26.88Q267.97-30.66 264.90-30.66L264.90-30.66L264.90-30.66Q263.30-30.66 261.98-29.22L261.98-29.22L261.98-29.22Q260.67-27.78 260.67-25.98L260.67-25.98L260.67-25.98Q260.67-24.70 261.70-23.68L261.70-23.68L261.70-23.68Q263.17-22.27 266.94-19.97L266.94-19.97L266.94-19.97Q270.72-17.66 272.16-15.78L272.16-15.78L272.16-15.78Q273.60-13.89 273.60-11.30L273.60-11.30L273.60-11.30Q273.60-8.70 272.35-6.34L272.35-6.34L272.35-6.34Q271.10-3.97 268.86-2.30L268.86-2.30L268.86-2.30Q264.06 1.28 256.38 1.28L256.38 1.28L256.38 1.28Q252.22 1.28 249.02-0.90L249.02-0.90L249.02-0.90Q245.82-3.01 245.82-5.50L245.82-5.50L245.82-5.50Q245.82-8 247.65-9.47L247.65-9.47L247.65-9.47Q249.47-10.94 252.16-10.94L252.16-10.94L252.16-10.94Q254.85-10.94 256.51-9.92L256.51-9.92L256.51-9.92Q255.68-7.81 255.68-6.40L255.68-6.40L255.68-6.40Q255.68-2.18 259.26-2.18L259.26-2.18L259.26-2.18Q260.80-2.18 261.82-3.14L261.82-3.14L261.82-3.14Q262.85-4.10 262.85-5.76L262.85-5.76L262.85-5.76Q262.85-9.02 257.34-12.48L257.34-12.48L257.34-12.48Q252.86-15.42 251.84-16.58L251.84-16.58L251.84-16.58Q250.11-18.62 250.11-21.18L250.11-21.18L250.11-21.18Q250.11-23.74 251.33-26.18L251.33-26.18L251.33-26.18Q252.54-28.61 254.78-30.34L254.78-30.34L254.78-30.34Q259.46-33.92 267.58-33.92L267.58-33.92L267.58-33.92Q271.74-33.92 274.21-32.26L274.21-32.26L274.21-32.26Q276.67-30.59 276.67-27.78L276.67-27.78L276.67-27.78Q276.67-24.96 274.98-23.36L274.98-23.36L274.98-23.36Q273.28-21.76 270.21-21.76L270.21-21.76L270.21-21.76Q268.10-21.76 267.07-22.46Z" fill="#85a2b6"></path></g></g><style>text {
  font-size: 64px;
  font-family: Arial Black;
  dominant-baseline: central;
  text-anchor: middle;
}</style></svg>